<svg width="43" height="54" viewBox="0 0 43 54" fill="none" xmlns="http://www.w3.org/2000/svg">
<path fill-rule="evenodd" clip-rule="evenodd" d="M32.6021 23.6279V11.0279C32.5444 9.94627 32.1177 8.91706 31.3931 8.11192L24.4931 1.21193C23.6877 0.488915 22.6597 0.0624081 21.5791 0.00292983H3.52109C2.61466 0.00266437 1.74522 0.362348 1.1039 1.00291C0.462583 1.64348 0.101872 2.5125 0.101077 3.41893V41.0619C0.10055 41.5108 0.188594 41.9553 0.36014 42.37C0.531686 42.7848 0.783371 43.1616 1.10079 43.4789C1.4182 43.7962 1.7951 44.0478 2.2099 44.2193C2.6247 44.3907 3.06926 44.4786 3.51808 44.4779H11.7591C11.4711 43.3581 11.2976 42.2118 11.2411 41.0569H5.22608C4.77326 41.0548 4.33983 40.873 4.02104 40.5514C3.70226 40.2298 3.52422 39.7947 3.52608 39.3419L3.55509 5.14193C3.55641 4.68645 3.73834 4.25009 4.06098 3.92858C4.38361 3.60707 4.8206 3.42666 5.27608 3.42693H19.7671C19.9922 3.42627 20.2152 3.46995 20.4234 3.55548C20.6316 3.64101 20.8209 3.76671 20.9805 3.92541C21.1401 4.0841 21.267 4.27268 21.3537 4.48038C21.4405 4.68809 21.4854 4.91084 21.4861 5.13593V7.70592C21.4858 8.15518 21.574 8.60008 21.7457 9.01524C21.9174 9.43039 22.1692 9.80767 22.4867 10.1255C22.8041 10.4434 23.1811 10.6956 23.5961 10.8678C24.011 11.0399 24.4558 11.1287 24.9051 11.1289H27.5111C27.7366 11.1288 27.9599 11.1731 28.1682 11.2594C28.3765 11.3456 28.5657 11.4721 28.7251 11.6316C28.8845 11.7911 29.0109 11.9804 29.097 12.1888C29.1831 12.3972 29.2273 12.6205 29.2271 12.8459L29.2111 23.1259C30.3565 23.1841 31.4933 23.3573 32.6041 23.6429L32.6021 23.6279ZM13.5081 31.6419H10.3641C10.136 31.6364 9.90907 31.6766 9.69672 31.7601C9.48437 31.8435 9.29086 31.9686 9.12758 32.128C8.9643 32.2874 8.83453 32.4778 8.74594 32.6881C8.65735 32.8984 8.61173 33.1243 8.61173 33.3524C8.61173 33.5806 8.65735 33.8065 8.74594 34.0167C8.83453 34.227 8.9643 34.4174 9.12758 34.5768C9.29086 34.7362 9.48437 34.8613 9.69672 34.9448C9.90907 35.0283 10.136 35.0684 10.3641 35.0629H12.0021C12.3771 33.8718 12.8821 32.7255 13.5081 31.6449V31.6419ZM20.0441 25.2239C19.7325 24.9496 19.3312 24.7988 18.9161 24.7999H10.3631C10.135 24.7944 9.90806 24.8346 9.69571 24.9181C9.48336 25.0015 9.28986 25.1267 9.12657 25.286C8.96329 25.4454 8.83354 25.6358 8.74495 25.8461C8.65636 26.0564 8.61072 26.2823 8.61072 26.5104C8.61072 26.7386 8.65636 26.9645 8.74495 27.1747C8.83354 27.385 8.96329 27.5754 9.12657 27.7348C9.28986 27.8942 9.48336 28.0193 9.69571 28.1028C9.90806 28.1863 10.135 28.2264 10.3631 28.2209H16.1081C17.2679 27.0361 18.5934 26.0256 20.0431 25.2209L20.0441 25.2239ZM25.7591 19.6679C25.7588 19.2143 25.5784 18.7794 25.2576 18.4587C24.9367 18.1381 24.5017 17.9579 24.0481 17.9579H10.3651C9.91143 17.9579 9.47636 18.1381 9.15558 18.4589C8.8348 18.7797 8.65459 19.2148 8.65459 19.6684C8.65459 20.1221 8.8348 20.5571 9.15558 20.8779C9.47636 21.1987 9.91143 21.3789 10.3651 21.3789H24.0491C24.5022 21.3789 24.9368 21.1992 25.2575 20.8792C25.5783 20.5592 25.759 20.125 25.7601 19.6719L25.7591 19.6679ZM16.3511 12.8279C16.3511 12.3743 16.171 11.9393 15.8503 11.6184C15.5296 11.2976 15.0947 11.1172 14.6411 11.1169H10.3651C10.137 11.1114 9.91008 11.1516 9.69773 11.2351C9.48537 11.3185 9.29185 11.4436 9.12857 11.603C8.96529 11.7624 8.83554 11.9528 8.74695 12.1631C8.65836 12.3734 8.61272 12.5993 8.61272 12.8274C8.61272 13.0556 8.65836 13.2815 8.74695 13.4917C8.83554 13.702 8.96529 13.8924 9.12857 14.0518C9.29185 14.2112 9.48537 14.3363 9.69773 14.4198C9.91008 14.5033 10.137 14.5434 10.3651 14.5379H14.6411C15.0946 14.5379 15.5295 14.3578 15.8502 14.0371C16.1709 13.7164 16.3511 13.2814 16.3511 12.8279ZM14.6411 40.1969C14.6413 37.4906 15.444 34.845 16.9477 32.5949C18.4514 30.3447 20.5885 28.591 23.0889 27.5554C25.5893 26.5198 28.3406 26.2489 30.995 26.7769C33.6493 27.3049 36.0875 28.6082 38.0011 30.5219C39.9148 32.4356 41.2181 34.8737 41.7461 37.5281C42.2741 40.1824 42.0032 42.9337 40.9676 45.4341C39.9321 47.9345 38.1783 50.0716 35.9281 51.5753C33.678 53.079 31.0325 53.8817 28.3261 53.8819C24.6968 53.8819 21.2161 52.4403 18.6497 49.874C16.0833 47.3078 14.6413 43.8272 14.6411 40.1979V40.1969ZM38.5901 40.1969C38.5903 38.1669 37.9885 36.1823 36.8608 34.4943C35.7331 32.8062 34.1301 31.4905 32.2546 30.7135C30.3791 29.9365 28.3154 29.7331 26.3243 30.129C24.3332 30.525 22.5042 31.5024 21.0687 32.9378C19.6331 34.3732 18.6555 36.2021 18.2594 38.1932C17.8633 40.1842 18.0665 42.248 18.8433 44.1236C19.6201 45.9991 20.9357 47.6022 22.6236 48.7301C24.3115 49.8579 26.296 50.4599 28.3261 50.4599C31.0479 50.4599 33.6583 49.3788 35.5831 47.4544C37.5079 45.5299 38.5895 42.9198 38.5901 40.1979V40.1969ZM27.3981 46.5389L35.0981 38.8389C35.406 38.5156 35.5754 38.0846 35.57 37.6381C35.5645 37.1915 35.3847 36.7648 35.069 36.4491C34.7532 36.1333 34.3265 35.9535 33.8799 35.9481C33.4334 35.9426 33.0025 36.112 32.6791 36.4199L26.2021 42.9199L23.1241 39.8419C22.8033 39.5211 22.3682 39.3409 21.9146 39.3409C21.4609 39.3409 21.0259 39.5211 20.7051 39.8419C20.3843 40.1627 20.2041 40.5978 20.2041 41.0514C20.2041 41.5051 20.3843 41.9401 20.7051 42.2609L24.9811 46.5379C25.3019 46.8586 25.737 47.0387 26.1906 47.0387C26.6442 47.0387 27.0792 46.8586 27.4001 46.5379L27.3981 46.5389Z" fill="#FF3465"/>
</svg>
