<svg width="19" height="16" viewBox="0 0 19 16" fill="none" xmlns="http://www.w3.org/2000/svg">
<path d="M16.0931 1.274H14.9601V0.6C14.9601 0.44087 14.8968 0.288257 14.7843 0.175735C14.6718 0.0632136 14.5192 0 14.3601 0C14.2009 0 14.0483 0.0632136 13.9358 0.175735C13.8233 0.288257 13.7601 0.44087 13.7601 0.6V1.273H5.43606V0.6C5.43606 0.44087 5.37285 0.288257 5.26032 0.175735C5.1478 0.0632136 4.99519 0 4.83606 0C4.67693 0 4.52432 0.0632136 4.4118 0.175735C4.29927 0.288257 4.23606 0.44087 4.23606 0.6V1.273H2.85406C2.58967 1.27221 2.32772 1.32354 2.08318 1.42405C1.83864 1.52456 1.61631 1.67228 1.42889 1.85876C1.24148 2.04525 1.09266 2.26685 0.990934 2.51088C0.889212 2.75492 0.836584 3.01661 0.83606 3.281V13.981C0.83606 14.5163 1.04864 15.0297 1.42706 15.4083C1.80548 15.7869 2.31876 15.9997 2.85406 16H16.0931C16.628 15.9992 17.1408 15.7863 17.5191 15.4081C17.8974 15.0298 18.1103 14.517 18.1111 13.982V3.282C18.1108 3.01754 18.0583 2.75573 17.9567 2.51157C17.8551 2.26741 17.7063 2.04571 17.5188 1.85917C17.3313 1.67263 17.1089 1.52492 16.8642 1.42451C16.6196 1.32409 16.3575 1.27295 16.0931 1.274ZM16.9071 13.982C16.9071 14.1979 16.8213 14.4049 16.6686 14.5576C16.516 14.7102 16.3089 14.796 16.0931 14.796H2.85406C2.63817 14.796 2.43113 14.7102 2.27847 14.5576C2.12582 14.4049 2.04006 14.1979 2.04006 13.982V6.336H16.9071V13.982ZM2.03606 5.133V3.281C2.03671 3.17494 2.05831 3.07007 2.09962 2.97239C2.14094 2.87471 2.20114 2.78615 2.27678 2.71181C2.35242 2.63747 2.44201 2.57881 2.54039 2.5392C2.63877 2.49959 2.74401 2.47981 2.85006 2.481H4.23606V2.931C4.23606 3.09013 4.29927 3.24274 4.4118 3.35526C4.52432 3.46778 4.67693 3.531 4.83606 3.531C4.99519 3.531 5.1478 3.46778 5.26032 3.35526C5.37285 3.24274 5.43606 3.09013 5.43606 2.931V2.481H13.7561V2.931C13.7561 3.09013 13.8193 3.24274 13.9318 3.35526C14.0443 3.46778 14.1969 3.531 14.3561 3.531C14.5152 3.531 14.6678 3.46778 14.7803 3.35526C14.8928 3.24274 14.9561 3.09013 14.9561 2.931V2.481H16.0891C16.1951 2.47981 16.3003 2.49959 16.3987 2.5392C16.4971 2.57881 16.5867 2.63747 16.6623 2.71181C16.738 2.78615 16.7982 2.87471 16.8395 2.97239C16.8808 3.07007 16.9024 3.17494 16.9031 3.281V5.132L2.03606 5.133Z" fill="#97A3B5"/>
</svg>
