<svg width="18" height="17" viewBox="0 0 18 17" fill="none" xmlns="http://www.w3.org/2000/svg">
<path d="M17.6691 0.472023C17.6108 0.333837 17.5135 0.215572 17.3893 0.131599C17.265 0.0476272 17.119 0.00156603 16.969 -0.000976562H13.155C12.9528 -0.000976562 12.7589 0.0793546 12.6159 0.222351C12.4729 0.365348 12.3925 0.559293 12.3925 0.76152C12.3925 0.963748 12.4729 1.15769 12.6159 1.30069C12.7589 1.44369 12.9528 1.52402 13.155 1.52402H15.1301L8.80205 7.84502C8.72823 7.91552 8.66925 8.00006 8.62856 8.09368C8.58787 8.1873 8.56629 8.2881 8.56511 8.39017C8.56394 8.49225 8.58317 8.59353 8.62169 8.68806C8.66021 8.78259 8.71724 8.86847 8.78942 8.94065C8.8616 9.01283 8.94748 9.06986 9.04201 9.10838C9.13654 9.1469 9.23782 9.16613 9.33989 9.16496C9.44197 9.16378 9.54278 9.14221 9.6364 9.10152C9.73002 9.06084 9.81456 9.00185 9.88506 8.92802L16.206 2.60002V4.57502C16.206 4.77725 16.2864 4.97119 16.4294 5.11419C16.5724 5.25719 16.7663 5.33752 16.9686 5.33752C17.1708 5.33752 17.3647 5.25719 17.5077 5.11419C17.6507 4.97119 17.731 4.77725 17.731 4.57502V0.762024C17.7299 0.662291 17.7092 0.563751 17.6701 0.472023H17.6691Z" fill="white"/>
<path d="M15.0611 16.774H3.62408C3.27355 16.7741 2.92642 16.7052 2.60254 16.5711C2.27866 16.437 1.98438 16.2404 1.73651 15.9926C1.48865 15.7447 1.29206 15.4504 1.15797 15.1265C1.02389 14.8027 0.954947 14.4555 0.955078 14.105V2.669C0.954947 2.31846 1.02389 1.97134 1.15797 1.64746C1.29206 1.32358 1.48865 1.02931 1.73651 0.781441C1.98438 0.533575 2.27866 0.33698 2.60254 0.202896C2.92642 0.0688131 3.27355 -0.000131222 3.62408 1.87499e-07H8.58008C8.78231 1.87499e-07 8.97625 0.0803313 9.11925 0.223328C9.26224 0.366324 9.34258 0.56027 9.34258 0.762497C9.34258 0.964725 9.26224 1.15867 9.11925 1.30167C8.97625 1.44466 8.78231 1.525 8.58008 1.525H3.62408C3.47382 1.52487 3.32498 1.55437 3.18613 1.61182C3.04727 1.66926 2.92111 1.75352 2.81485 1.85978C2.70859 1.96604 2.62434 2.0922 2.56689 2.23106C2.50945 2.36991 2.47994 2.51873 2.48007 2.669V14.106C2.47994 14.2563 2.50945 14.4051 2.56689 14.5439C2.62434 14.6828 2.70859 14.809 2.81485 14.9152C2.92111 15.0215 3.04727 15.1057 3.18613 15.1632C3.32498 15.2206 3.47382 15.2501 3.62408 15.25H15.0611C15.2114 15.2501 15.3602 15.2206 15.499 15.1632C15.6379 15.1057 15.764 15.0215 15.8703 14.9152C15.9766 14.809 16.0608 14.6828 16.1183 14.5439C16.1757 14.4051 16.2052 14.2563 16.2051 14.106V9.15C16.2051 8.94777 16.2854 8.75383 16.4284 8.61083C16.5714 8.46784 16.7653 8.3875 16.9676 8.3875C17.1698 8.3875 17.3637 8.46784 17.5067 8.61083C17.6497 8.75383 17.7301 8.94777 17.7301 9.15V14.106C17.7302 14.4565 17.6613 14.8037 17.5272 15.1275C17.3931 15.4514 17.1965 15.7457 16.9486 15.9936C16.7008 16.2414 16.4065 16.438 16.0826 16.5721C15.7587 16.7062 15.4116 16.7751 15.0611 16.775V16.774Z" fill="white"/>
</svg>
