<svg width="18" height="18" viewBox="0 0 18 18" fill="none" xmlns="http://www.w3.org/2000/svg">
<path d="M17.836 10.3842V10.8582C17.824 10.8942 17.808 10.9302 17.799 10.9662C17.7155 11.3394 17.5031 11.6712 17.1991 11.9032C17.1201 11.9642 17.035 12.0162 16.954 12.0712C17.135 12.457 17.1609 12.8974 17.0266 13.3018C16.8923 13.7061 16.6078 14.0435 16.232 14.2442C16.25 14.2952 16.267 14.3442 16.286 14.3992C16.408 14.7247 16.4206 15.081 16.3221 15.4142C16.2149 15.7626 15.996 16.066 15.6993 16.2777C15.4025 16.4893 15.0443 16.5974 14.68 16.5852C12.4887 16.5852 10.2974 16.5852 8.10605 16.5852C7.53505 16.5713 6.97129 16.454 6.44205 16.2392C6.38369 16.2238 6.33319 16.1872 6.30045 16.1365C6.2677 16.0858 6.25507 16.0247 6.26505 15.9652C6.27038 13.6046 6.27038 11.2436 6.26505 8.88222C6.25611 8.6583 6.30068 8.43548 6.39505 8.23222C7.07305 6.82522 7.71704 5.40222 8.36804 3.98222C8.4086 3.8902 8.42971 3.79079 8.43004 3.69022C8.43504 2.95022 8.43005 2.21022 8.43805 1.47022C8.43726 1.34867 8.47939 1.23074 8.55704 1.13722C8.83912 0.880688 9.19842 0.725097 9.57851 0.694871C9.9586 0.664645 10.338 0.761496 10.657 0.97022C11.0887 1.2645 11.441 1.66082 11.6826 2.124C11.9242 2.58717 12.0477 3.10285 12.042 3.62522C12.0289 4.21844 11.9415 4.80769 11.782 5.37922C11.694 5.73322 11.589 6.07922 11.482 6.46022H11.692C13.0814 6.46022 14.4707 6.46022 15.86 6.46022C16.2667 6.44159 16.6686 6.55407 17.0066 6.78109C17.3445 7.00812 17.6006 7.33768 17.737 7.72122C17.773 7.82722 17.799 7.93622 17.829 8.04422V8.51822C17.757 8.87532 17.5933 9.20752 17.3541 9.48222C17.5973 9.7309 17.7645 10.0438 17.836 10.3842Z" fill="#679DFF"/>
<path d="M0.483103 9.46895C0.547319 9.16029 0.676516 8.86883 0.862103 8.61396C1.01925 8.40152 1.22302 8.22796 1.45775 8.1066C1.69248 7.98525 1.95191 7.91935 2.2161 7.91396C3.3001 7.89796 4.3851 7.90896 5.4691 7.90896C5.49069 7.91146 5.51208 7.91547 5.5331 7.92095C5.5331 7.97995 5.5401 8.03896 5.5401 8.09896C5.5401 10.9916 5.5401 13.884 5.5401 16.776C5.54624 16.8309 5.53521 16.8863 5.50853 16.9346C5.48184 16.983 5.44081 17.0219 5.3911 17.046C5.12961 17.2051 4.83112 17.2934 4.5251 17.302C3.7621 17.302 3.0001 17.315 2.2381 17.302C1.8218 17.2953 1.42098 17.143 1.10529 16.8715C0.789609 16.6001 0.579015 16.2266 0.510103 15.816C0.502482 15.7897 0.492438 15.7643 0.480103 15.74C0.482769 13.65 0.483769 11.5596 0.483103 9.46895Z" fill="#679DFF"/>
</svg>
