<svg width="24" height="23" viewBox="0 0 24 23" fill="none" xmlns="http://www.w3.org/2000/svg">
<path d="M23.5919 11.4347C23.6027 11.4939 23.6027 11.5545 23.5919 11.6137C23.5981 11.6467 23.5981 11.6806 23.5919 11.7137C23.557 11.7989 23.5061 11.8766 23.4419 11.9427L18.4419 16.9427C18.3078 17.0767 18.126 17.152 17.9364 17.152C17.7468 17.152 17.565 17.0767 17.4309 16.9427C17.2969 16.8086 17.2216 16.6268 17.2216 16.4372C17.2216 16.2476 17.2969 16.0658 17.4309 15.9317L21.1619 12.1497H9.2919C9.10227 12.1497 8.9204 12.0744 8.78632 11.9403C8.65223 11.8062 8.5769 11.6243 8.5769 11.4347C8.5769 11.2451 8.65223 11.0632 8.78632 10.9291C8.9204 10.795 9.10227 10.7197 9.2919 10.7197H21.1509L17.3619 6.9387C17.2335 6.80285 17.1632 6.62228 17.1658 6.43539C17.1685 6.2485 17.2439 6.07 17.376 5.93783C17.5082 5.80566 17.6867 5.73025 17.8736 5.72761C18.0605 5.72497 18.241 5.79532 18.3769 5.9237L23.3769 10.9237C23.4411 10.9897 23.4921 11.0674 23.5269 11.1527C23.5331 11.1857 23.5331 11.2197 23.5269 11.2527C23.5571 11.3082 23.5764 11.369 23.5839 11.4317L23.5919 11.4347Z" fill="white"/>
<path d="M15.012 22.875H3.57399C2.62611 22.875 1.71705 22.4985 1.0468 21.8282C0.376544 21.1579 0 20.2489 0 19.301V3.57401C0 2.62612 0.376544 1.71705 1.0468 1.0468C1.71705 0.376544 2.62611 0 3.57399 0H15.011C15.9589 0 16.8679 0.376544 17.5382 1.0468C18.2084 1.71705 18.585 2.62612 18.585 3.57401C18.585 3.76363 18.5097 3.9455 18.3756 4.07959C18.2415 4.21368 18.0596 4.289 17.87 4.289C17.6804 4.289 17.4985 4.21368 17.3644 4.07959C17.2303 3.9455 17.155 3.76363 17.155 3.57401C17.155 3.00512 16.929 2.45953 16.5267 2.05727C16.1245 1.655 15.5789 1.429 15.01 1.429H3.57399C3.0051 1.429 2.45952 1.655 2.05725 2.05727C1.65499 2.45953 1.429 3.00512 1.429 3.57401V19.3C1.429 19.8689 1.65499 20.4145 2.05725 20.8167C2.45952 21.219 3.0051 21.445 3.57399 21.445H15.011C15.2927 21.445 15.5716 21.3895 15.8318 21.2817C16.0921 21.1739 16.3286 21.0159 16.5277 20.8167C16.7269 20.6176 16.8849 20.3811 16.9927 20.1209C17.1005 19.8606 17.156 19.5817 17.156 19.3C17.156 19.1104 17.2313 18.9285 17.3654 18.7944C17.4995 18.6603 17.6814 18.585 17.871 18.585C18.0606 18.585 18.2425 18.6603 18.3766 18.7944C18.5107 18.9285 18.586 19.1104 18.586 19.3C18.586 20.248 18.2095 21.1571 17.5393 21.8276C16.869 22.498 15.96 22.8747 15.012 22.875Z" fill="white"/>
</svg>
