<svg width="20" height="26" viewBox="0 0 20 26" fill="none" xmlns="http://www.w3.org/2000/svg">
<g clip-path="url(#clip0_1626_281)">
<path d="M5.13489 1.38699C5.01261 1.38726 4.89541 1.43588 4.80885 1.52225C4.72229 1.60862 4.67342 1.72572 4.67289 1.84799V4.16101C4.67315 4.28346 4.72191 4.40081 4.8085 4.4874C4.89508 4.57398 5.01244 4.62272 5.13489 4.62299H14.3799C14.5023 4.62272 14.6197 4.57398 14.7063 4.4874C14.7929 4.40081 14.8416 4.28346 14.8419 4.16101V1.849C14.8414 1.72672 14.7925 1.60962 14.7059 1.52325C14.6194 1.43689 14.5022 1.38826 14.3799 1.388H5.13489V1.38699ZM5.13489 0H14.3799C14.8703 0 15.3406 0.19481 15.6873 0.541565C16.0341 0.88832 16.2289 1.35861 16.2289 1.849V4.16101C16.2281 4.65088 16.0329 5.12039 15.6863 5.46649C15.3396 5.8126 14.8698 6.00699 14.3799 6.00699H5.13489C4.64502 6.00699 4.17518 5.8126 3.82851 5.46649C3.48184 5.12039 3.28668 4.65088 3.28589 4.16101V1.849C3.28589 1.35861 3.4807 0.88832 3.82745 0.541565C4.1742 0.19481 4.6445 0 5.13489 0Z" fill="white"/>
<path d="M17.837 2.34769H16.229V3.75668H17.837C17.9612 3.75721 18.0802 3.80681 18.1681 3.89465C18.2559 3.98249 18.3055 4.10148 18.306 4.22571V23.9397C18.3057 24.064 18.2562 24.1831 18.1683 24.271C18.0804 24.3589 17.9613 24.4084 17.837 24.4087H1.878C1.75361 24.4087 1.63432 24.3593 1.54637 24.2713C1.45841 24.1834 1.409 24.0641 1.409 23.9397V4.22369C1.40926 4.09939 1.45876 3.98026 1.54666 3.89236C1.63456 3.80447 1.75369 3.75496 1.878 3.7547H3.35V2.3457H1.878C1.37992 2.3457 0.902246 2.54356 0.550053 2.89575C0.197859 3.24795 0 3.72562 0 4.22369V23.9377C0 24.4358 0.197859 24.9135 0.550053 25.2657C0.902246 25.6178 1.37992 25.8157 1.878 25.8157H17.837C18.3351 25.8157 18.8128 25.6178 19.1649 25.2657C19.5171 24.9135 19.715 24.4358 19.715 23.9377V4.22369C19.7145 3.72596 19.5164 3.24879 19.1642 2.89703C18.8121 2.54527 18.3347 2.34769 17.837 2.34769Z" fill="white"/>
</g>
<defs>
<clipPath id="clip0_1626_281">
<rect width="19.715" height="25.818" fill="white"/>
</clipPath>
</defs>
</svg>
