<svg width="20" height="27" viewBox="0 0 20 27" fill="none" xmlns="http://www.w3.org/2000/svg">
<g clip-path="url(#clip0_1626_257)">
<path d="M4.54988 14.9069C4.4604 14.9072 4.37271 14.8818 4.29721 14.8338C4.2217 14.7857 4.16155 14.7171 4.12389 14.6359L3.41189 13.1079C3.38553 13.0521 3.37044 12.9917 3.36748 12.93C3.36453 12.8684 3.37376 12.8068 3.39467 12.7487C3.41557 12.6906 3.44772 12.6373 3.48929 12.5917C3.53085 12.5461 3.58101 12.5091 3.63688 12.4829C3.69275 12.4565 3.75328 12.4414 3.81499 12.4385C3.8767 12.4355 3.93839 12.4447 3.99654 12.4656C4.05468 12.4865 4.10813 12.5187 4.15383 12.5602C4.19954 12.6018 4.23659 12.652 4.26289 12.7079L4.67289 13.5889L6.44389 11.5989C6.52888 11.5082 6.64637 11.4548 6.77064 11.4505C6.8949 11.4462 7.01581 11.4913 7.10689 11.5759C7.19491 11.6584 7.24784 11.7716 7.25472 11.892C7.26161 12.0124 7.22193 12.1309 7.14388 12.2229L4.90088 14.7489C4.85697 14.7987 4.80295 14.8385 4.74242 14.8658C4.6819 14.893 4.61626 14.907 4.54988 14.9069Z" fill="white"/>
<path d="M5.91209 21.0973C5.83825 21.0975 5.76542 21.0802 5.69955 21.0468C5.63368 21.0134 5.57664 20.965 5.53309 20.9053L3.26709 17.8133C3.23055 17.7637 3.20416 17.7074 3.18941 17.6475C3.17466 17.5877 3.17185 17.5255 3.18114 17.4646C3.19042 17.4037 3.21163 17.3452 3.24353 17.2924C3.27544 17.2397 3.31743 17.1938 3.36709 17.1573C3.46741 17.0838 3.59279 17.053 3.71575 17.0718C3.83871 17.0905 3.94923 17.1572 4.02309 17.2573L6.28909 20.3493C6.32563 20.399 6.35202 20.4553 6.36677 20.5151C6.38152 20.575 6.38433 20.6371 6.37504 20.6981C6.36576 20.759 6.34455 20.8175 6.31265 20.8702C6.28074 20.9229 6.23875 20.9689 6.18909 21.0053C6.10916 21.0652 6.01195 21.0975 5.91209 21.0973Z" fill="white"/>
<path d="M3.64491 21.097C3.54522 21.0971 3.44814 21.0652 3.36791 21.006C3.26784 20.9322 3.20112 20.8217 3.18237 20.6987C3.16363 20.5758 3.19439 20.4504 3.26791 20.3501L5.53491 17.258C5.57123 17.2083 5.61702 17.1662 5.66966 17.1343C5.72229 17.1023 5.78073 17.0811 5.84161 17.0718C5.90249 17.0625 5.9646 17.0653 6.02438 17.0801C6.08416 17.0949 6.14041 17.1214 6.18991 17.158C6.28999 17.2319 6.35671 17.3424 6.37546 17.4654C6.3942 17.5883 6.36344 17.7137 6.28991 17.814L4.02391 20.9061C3.97998 20.9652 3.92284 21.0133 3.85704 21.0464C3.79124 21.0796 3.7186 21.0969 3.64491 21.097Z" fill="white"/>
<path d="M16.102 19.6528H11.302C11.1776 19.6528 11.0583 19.6034 10.9704 19.5155C10.8824 19.4275 10.833 19.3082 10.833 19.1838C10.833 19.0595 10.8824 18.9402 10.9704 18.8522C11.0583 18.7642 11.1776 18.7148 11.302 18.7148H16.102C16.2264 18.7151 16.3456 18.7646 16.4337 18.8524C16.5218 18.9403 16.5715 19.0594 16.572 19.1838C16.5715 19.3082 16.5218 19.4274 16.4337 19.5153C16.3456 19.6031 16.2264 19.6526 16.102 19.6528Z" fill="white"/>
<path d="M16.102 13.6421H11.302C11.1776 13.6421 11.0583 13.5927 10.9704 13.5048C10.8824 13.4168 10.833 13.2975 10.833 13.1731C10.833 13.0487 10.8824 12.9294 10.9704 12.8415C11.0583 12.7535 11.1776 12.7041 11.302 12.7041H16.102C16.2264 12.7044 16.3456 12.7538 16.4337 12.8417C16.5218 12.9296 16.5715 13.0487 16.572 13.1731C16.5715 13.2975 16.5218 13.4166 16.4337 13.5045C16.3456 13.5924 16.2264 13.6419 16.102 13.6421Z" fill="white"/>
<path d="M5.13489 2.20535C5.01261 2.20562 4.89541 2.25424 4.80885 2.34061C4.72229 2.42698 4.67342 2.54408 4.67289 2.66635V4.97937C4.67315 5.10182 4.72191 5.21917 4.8085 5.30576C4.89508 5.39234 5.01244 5.44108 5.13489 5.44135H14.3799C14.5023 5.44108 14.6197 5.39234 14.7063 5.30576C14.7929 5.21917 14.8416 5.10182 14.8419 4.97937V2.66736C14.8414 2.54508 14.7925 2.42798 14.7059 2.34161C14.6194 2.25524 14.5022 2.20662 14.3799 2.20636H5.13489V2.20535ZM5.13489 0.818359H14.3799C14.8703 0.818359 15.3406 1.01317 15.6873 1.35992C16.0341 1.70668 16.2289 2.17697 16.2289 2.66736V4.97937C16.2281 5.46924 16.0329 5.93875 15.6863 6.28485C15.3396 6.63096 14.8698 6.82535 14.3799 6.82535H5.13489C4.64502 6.82535 4.17518 6.63096 3.82851 6.28485C3.48184 5.93875 3.28668 5.46924 3.28589 4.97937V2.66736C3.28589 2.17697 3.4807 1.70668 3.82745 1.35992C4.1742 1.01317 4.6445 0.818359 5.13489 0.818359Z" fill="white"/>
<path d="M17.837 3.16605H16.229V4.57504H17.837C17.9612 4.57557 18.0802 4.62517 18.1681 4.71301C18.2559 4.80085 18.3055 4.91984 18.306 5.04407V24.7581C18.3057 24.8824 18.2562 25.0015 18.1683 25.0894C18.0804 25.1773 17.9613 25.2268 17.837 25.2271H1.878C1.75361 25.2271 1.63432 25.1776 1.54637 25.0897C1.45841 25.0017 1.409 24.8824 1.409 24.7581V5.04205C1.40926 4.91775 1.45876 4.79862 1.54666 4.71072C1.63456 4.62283 1.75369 4.57332 1.878 4.57306H3.35V3.16406H1.878C1.37992 3.16406 0.902246 3.36192 0.550053 3.71411C0.197859 4.0663 0 4.54398 0 5.04205V24.756C0 25.2541 0.197859 25.7318 0.550053 26.084C0.902246 26.4362 1.37992 26.6341 1.878 26.6341H17.837C18.3351 26.6341 18.8128 26.4362 19.1649 26.084C19.5171 25.7318 19.715 25.2541 19.715 24.756V5.04205C19.7145 4.54432 19.5164 4.06715 19.1642 3.71539C18.8121 3.36363 18.3347 3.16605 17.837 3.16605Z" fill="white"/>
</g>
<defs>
<clipPath id="clip0_1626_257">
<rect width="19.715" height="25.818" fill="white" transform="translate(0 0.818359)"/>
</clipPath>
</defs>
</svg>
