<svg width="32" height="24" viewBox="0 0 32 24" fill="none" xmlns="http://www.w3.org/2000/svg">
<g clip-path="url(#clip0_1626_295)">
<path d="M7.4831 18.475C6.99547 18.1932 6.4408 18.0481 5.8776 18.0551C5.31441 18.0622 4.76354 18.221 4.2831 18.515C3.59306 18.8628 3.01795 19.4022 2.62669 20.0686C2.23542 20.735 2.0446 21.5 2.0771 22.272C2.09375 22.4172 2.08017 22.5642 2.03723 22.7039C1.99428 22.8436 1.9229 22.9729 1.82756 23.0836C1.73222 23.1944 1.615 23.2842 1.48326 23.3474C1.35153 23.4106 1.20814 23.4459 1.06211 23.451C0.913127 23.4519 0.765641 23.4212 0.629314 23.3611C0.492988 23.3011 0.370893 23.2128 0.271015 23.1023C0.171137 22.9917 0.0957277 22.8614 0.049732 22.7197C0.00373615 22.578 -0.011814 22.4282 0.00410054 22.28C-0.0299082 20.6867 0.553835 19.142 1.63309 17.9694C2.71235 16.7967 4.20342 16.087 5.79411 15.989C6.72441 15.9687 7.64385 16.1921 8.46111 16.637C9.21379 15.4329 10.2603 14.44 11.5024 13.7516C12.7444 13.0633 14.1411 12.7021 15.5611 12.7021C16.9811 12.7021 18.3778 13.0633 19.6198 13.7516C20.8619 14.44 21.9084 15.4329 22.6611 16.637C23.4977 16.1823 24.4405 15.9593 25.3921 15.991C26.7921 16.0942 28.1152 16.6708 29.1438 17.6262C30.1723 18.5815 30.845 19.8585 31.0511 21.247C31.092 21.5898 31.113 21.9348 31.1141 22.28C31.1313 22.4282 31.1167 22.5782 31.0714 22.7203C31.0261 22.8623 30.951 22.9931 30.8512 23.1039C30.7514 23.2147 30.6291 23.3029 30.4925 23.3628C30.356 23.4226 30.2082 23.4528 30.0591 23.451C29.913 23.4461 29.7696 23.4108 29.6377 23.3477C29.5059 23.2845 29.3887 23.1947 29.2933 23.0839C29.1979 22.9731 29.1265 22.8438 29.0837 22.704C29.0408 22.5643 29.0273 22.4172 29.0441 22.272C29.077 21.4942 28.8833 20.7236 28.4865 20.0538C28.0898 19.384 27.507 18.8439 26.8091 18.499C26.3357 18.2133 25.7947 18.0589 25.2418 18.0515C24.6889 18.0441 24.144 18.1841 23.6631 18.457C23.8491 19.225 24.0631 19.957 24.1971 20.708C24.2829 21.2404 24.3274 21.7788 24.3301 22.3181C24.3375 22.4534 24.3177 22.5887 24.2719 22.7162C24.2261 22.8438 24.1551 22.9608 24.0633 23.0605C23.9715 23.1601 23.8606 23.2404 23.7373 23.2965C23.6139 23.3526 23.4806 23.3834 23.3451 23.387C23.2093 23.3961 23.0731 23.3775 22.9449 23.3322C22.8166 23.2868 22.6989 23.2157 22.599 23.1234C22.4991 23.031 22.4191 22.9192 22.364 22.7948C22.3088 22.6704 22.2796 22.5361 22.2781 22.4C22.2678 21.4161 22.0989 20.4402 21.7781 19.51C21.4481 18.4762 20.8808 17.5339 20.1215 16.7586C19.3621 15.9833 18.4319 15.3965 17.4051 15.045C16.1642 14.6529 14.831 14.6628 13.5961 15.0733C12.3611 15.4838 11.2873 16.274 10.5281 17.3311C9.53172 18.6223 8.95515 20.1879 8.8761 21.817C8.8651 22 8.86611 22.184 8.85011 22.367C8.84822 22.5051 8.81867 22.6415 8.76321 22.768C8.70775 22.8945 8.62749 23.0087 8.52719 23.1036C8.42689 23.1986 8.30858 23.2725 8.17923 23.321C8.04988 23.3695 7.91213 23.3917 7.7741 23.386C7.63637 23.3803 7.50116 23.3471 7.37642 23.2885C7.25168 23.2298 7.13991 23.1468 7.04769 23.0443C6.95547 22.9418 6.88465 22.822 6.83939 22.6918C6.79412 22.5616 6.77533 22.4236 6.7841 22.286C6.78523 21.1074 6.9899 19.9379 7.3891 18.829C7.4221 18.738 7.4541 18.646 7.4841 18.554C7.48702 18.5277 7.48669 18.5012 7.4831 18.475Z" fill="white"/>
<path d="M10.302 5.76047C10.3011 4.7448 10.6021 3.75181 11.1669 2.90765C11.7317 2.06349 12.5347 1.4063 13.4738 1.01959C14.413 0.632881 15.4459 0.534105 16.4413 0.735838C17.4368 0.93757 18.3497 1.43068 19.0643 2.15252C19.7788 2.87436 20.2625 3.79236 20.4541 4.78979C20.6456 5.78723 20.5363 6.81908 20.14 7.75424C19.7438 8.6894 19.0784 9.48566 18.2285 10.0418C17.3786 10.5979 16.3826 10.8888 15.367 10.8775C14.0189 10.8638 12.7307 10.3186 11.7823 9.36047C10.8339 8.40233 10.3019 7.10862 10.302 5.76047ZM15.402 8.80346C16.0048 8.80859 16.5956 8.63479 17.0996 8.30404C17.6037 7.9733 17.9982 7.5005 18.2334 6.94543C18.4686 6.39037 18.5339 5.77799 18.421 5.18582C18.3081 4.59365 18.022 4.0483 17.5991 3.61874C17.1761 3.18919 16.6352 2.89476 16.0448 2.7727C15.4545 2.65065 14.8412 2.70646 14.2825 2.93307C13.7239 3.15969 13.2451 3.5469 12.9066 4.04574C12.5681 4.54459 12.3852 5.13264 12.381 5.73547C12.3751 6.54205 12.6893 7.31804 13.2547 7.89334C13.82 8.46863 14.5905 8.79629 15.397 8.80447L15.402 8.80346Z" fill="white"/>
<path d="M1.80607 9.92565C1.80832 9.40368 1.91459 8.88741 2.11866 8.40698C2.32273 7.92654 2.62052 7.49159 2.99461 7.12756C3.3687 6.76352 3.81159 6.47771 4.29741 6.2868C4.78322 6.09589 5.30222 6.00372 5.82407 6.01568C6.86116 6.03749 7.84762 6.46826 8.56855 7.21411C9.28949 7.95995 9.68649 8.96044 9.67307 9.99768C9.66888 10.5145 9.56286 11.0254 9.36107 11.5012C9.15928 11.9769 8.86568 12.4083 8.49705 12.7705C8.12843 13.1327 7.69201 13.4187 7.21277 13.6121C6.73352 13.8055 6.22085 13.9026 5.70406 13.8977C4.66059 13.8874 3.66389 13.4632 2.93298 12.7184C2.20206 11.9737 1.79674 10.9691 1.80607 9.92565ZM3.88007 9.96466C3.88086 10.4564 4.07655 10.9278 4.42426 11.2755C4.77197 11.6232 5.24333 11.8189 5.73507 11.8197C5.9813 11.8206 6.22526 11.7726 6.45275 11.6784C6.68024 11.5842 6.88673 11.4456 7.06019 11.2709C7.23365 11.0961 7.37062 10.8886 7.46313 10.6604C7.55565 10.4322 7.60185 10.1879 7.59906 9.94171C7.5992 9.69829 7.55132 9.45724 7.45817 9.23236C7.36502 9.00747 7.22843 8.80312 7.05621 8.6311C6.884 8.45907 6.67955 8.3227 6.45456 8.22979C6.22958 8.13688 5.98848 8.08926 5.74506 8.08966C5.4989 8.08804 5.25489 8.13557 5.02729 8.22936C4.79969 8.32316 4.59307 8.46134 4.41951 8.63592C4.24596 8.8105 4.10895 9.01794 4.0165 9.24609C3.92404 9.47424 3.878 9.71851 3.88107 9.96466H3.88007Z" fill="white"/>
<path d="M25.1892 13.8907C24.4154 13.9079 23.6537 13.6968 22.9991 13.2837C22.3446 12.8706 21.8262 12.2739 21.5087 11.5681C21.1912 10.8622 21.0886 10.0784 21.2137 9.31463C21.3389 8.55083 21.6862 7.84081 22.2124 7.27319C22.7386 6.70557 23.4203 6.30551 24.1724 6.12292C24.9246 5.94034 25.7138 5.98332 26.4417 6.24652C27.1696 6.50972 27.8038 6.98148 28.2652 7.6029C28.7266 8.22432 28.9948 8.96784 29.0362 9.74072C29.0634 10.2675 28.9847 10.7945 28.8048 11.2903C28.6249 11.7862 28.3474 12.241 27.9888 12.6279C27.6302 13.0147 27.1977 13.3258 26.7168 13.5427C26.236 13.7596 25.7166 13.8779 25.1892 13.8907ZM25.1422 8.09076C24.7727 8.08247 24.4091 8.18409 24.0976 8.38281C23.786 8.58152 23.5405 8.86835 23.3921 9.20685C23.2438 9.54534 23.1995 9.92028 23.2646 10.2841C23.3297 10.6478 23.5015 10.984 23.7581 11.25C24.0146 11.516 24.3444 11.6998 24.7056 11.778C25.0668 11.8562 25.4431 11.8254 25.7867 11.6894C26.1303 11.5534 26.4258 11.3184 26.6356 11.0142C26.8455 10.7099 26.9602 10.3503 26.9652 9.98077C26.9714 9.48908 26.7835 9.01478 26.4422 8.66076C26.1009 8.30675 25.6338 8.10153 25.1422 8.08972V8.09076Z" fill="white"/>
</g>
<defs>
<clipPath id="clip0_1626_295">
<rect width="31.112" height="22.815" fill="white" transform="translate(0 0.636719)"/>
</clipPath>
</defs>
</svg>
