<svg width="49" height="39" viewBox="0 0 49 39" fill="none" xmlns="http://www.w3.org/2000/svg">
<path d="M47.3979 9.32814L43.5309 5.51115C43.334 5.27534 43.081 5.09272 42.7952 4.98003C42.5094 4.86734 42.1998 4.82818 41.8949 4.86614C41.2794 4.87259 40.6914 5.12204 40.2589 5.56014L36.4419 9.37714C36.0541 8.84528 35.5473 8.41143 34.962 8.11019C34.3767 7.80896 33.7292 7.64868 33.0709 7.64214H22.3659C21.6428 5.98132 20.5257 4.52176 19.1115 3.38979C17.6973 2.25782 16.0286 1.48756 14.2497 1.14566C12.4708 0.803767 10.6354 0.900544 8.90233 1.42762C7.16926 1.9547 5.59076 2.89619 4.30344 4.17061C3.01613 5.44503 2.05879 7.01397 1.51429 8.74164C0.96979 10.4693 0.854532 12.3036 1.1785 14.0859C1.50246 15.8681 2.25589 17.5446 3.37357 18.9701C4.49124 20.3956 5.93948 21.5273 7.59294 22.2671V34.0161C7.59281 34.5761 7.70301 35.1307 7.91725 35.6481C8.13149 36.1655 8.44557 36.6356 8.84155 37.0315C9.23752 37.4275 9.70763 37.7416 10.225 37.9558C10.7424 38.1701 11.2969 38.2803 11.8569 38.2801H33.1249C34.2527 38.2705 35.3316 37.8181 36.129 37.0205C36.9264 36.2229 37.3785 35.1439 37.3879 34.0161V22.7631L47.4979 12.5511C47.9017 12.1055 48.1169 11.5206 48.0982 10.9195C48.0796 10.3184 47.8285 9.74794 47.3979 9.32814ZM26.0839 24.4491L28.5629 26.9281L24.8449 28.6581C24.7734 28.6984 24.691 28.7151 24.6095 28.7057C24.528 28.6963 24.4515 28.6613 24.3911 28.6059C24.3306 28.5504 24.2892 28.4772 24.2728 28.3968C24.2565 28.3164 24.266 28.2328 24.2999 28.1581L26.0839 24.4491ZM31.2899 25.0441C31.1409 25.1931 30.9899 25.2921 30.8439 25.4441L27.5719 22.2221C27.6926 22.0626 27.8264 21.9134 27.9719 21.7761L37.6389 12.0591L40.9609 15.3811L31.2899 25.0441ZM3.67594 12.1581C3.67574 10.4813 4.1728 8.84208 5.10426 7.44775C6.03571 6.05342 7.35972 4.96662 8.90886 4.32478C10.458 3.68295 12.1627 3.51491 13.8073 3.84193C15.4519 4.16894 16.9627 4.97631 18.1484 6.16194C19.3342 7.34757 20.1418 8.8582 20.469 10.5028C20.7962 12.1474 20.6283 13.8521 19.9867 15.4013C19.345 16.9505 18.2584 18.2747 16.8642 19.2063C15.4699 20.1379 13.8308 20.6351 12.1539 20.6351C9.90788 20.6278 7.7559 19.7323 6.1676 18.1442C4.57929 16.5561 3.68359 14.4042 3.67594 12.1581ZM34.6609 34.0211C34.6599 34.4463 34.4938 34.8545 34.1978 35.1596C33.9018 35.4648 33.4989 35.6432 33.0739 35.6571H11.8059C11.5942 35.6543 11.3851 35.6096 11.1907 35.5258C10.9962 35.442 10.8203 35.3206 10.6728 35.1686C10.5254 35.0166 10.4094 34.837 10.3315 34.6401C10.2536 34.4432 10.2154 34.2329 10.2189 34.0211V23.0581C10.8569 23.1763 11.5033 23.2432 12.1519 23.2581C15.1091 23.2542 17.9441 22.0778 20.0353 19.987C22.1266 17.8961 23.3034 15.0613 23.3079 12.1041C23.2903 11.5047 23.2234 10.9077 23.1079 10.3191H33.0729C33.3905 10.3208 33.7007 10.4156 33.965 10.5917C34.2293 10.7679 34.4361 11.0176 34.5599 11.3101L26.1319 19.8371C25.1535 20.818 24.3488 21.9579 23.7519 23.2081L21.9669 27.0751C21.7012 27.6371 21.6158 28.2675 21.7223 28.8799C21.8288 29.4924 22.1221 30.0569 22.5619 30.4961C22.8395 30.78 23.1712 31.0053 23.5374 31.1585C23.9037 31.3117 24.2969 31.3898 24.6939 31.3881C25.141 31.3891 25.5822 31.2864 25.9829 31.0881L29.7999 29.3031C31.0502 28.7063 32.1901 27.9016 33.1709 26.9231L34.6579 25.4361L34.6609 34.0211ZM42.8409 13.4471L39.5189 10.1251L41.9979 7.64214L45.3199 10.9641L42.8409 13.4471Z" fill="#FF3465"/>
<path d="M16.1198 9.27772C15.8582 9.04531 15.518 8.92106 15.1682 8.93015C14.8183 8.93925 14.485 9.08102 14.2358 9.32671L10.9638 12.8467L9.67484 11.5077C9.55555 11.3761 9.41115 11.2696 9.25012 11.1945C9.08909 11.1195 8.91469 11.0774 8.73715 11.0707C8.55962 11.064 8.38254 11.0929 8.21632 11.1556C8.05011 11.2183 7.89811 11.3137 7.76926 11.436C7.64041 11.5583 7.53731 11.7051 7.46602 11.8679C7.39473 12.0306 7.3567 12.2059 7.35414 12.3836C7.35159 12.5612 7.38456 12.7376 7.45114 12.9023C7.51772 13.067 7.61656 13.2168 7.74184 13.3427L9.97284 15.7717C10.2313 16.0455 10.5876 16.2058 10.9638 16.2177C11.1512 16.2179 11.3365 16.1782 11.5073 16.1013C11.6782 16.0244 11.8307 15.9121 11.9548 15.7717L16.2178 11.2107C16.4555 10.9384 16.5779 10.5844 16.5593 10.2235C16.5406 9.86255 16.3823 9.52304 16.1178 9.27673L16.1198 9.27772Z" fill="#FF3465"/>
</svg>
