<svg width="22" height="26" viewBox="0 0 22 26" fill="none" xmlns="http://www.w3.org/2000/svg">
<path d="M7.83861 0.640718C8.24361 0.695718 8.65061 0.740718 9.05461 0.808718C9.86201 0.971514 10.6493 1.22165 11.4026 1.55472C13.038 2.16704 14.776 2.45868 16.5216 2.41372C17.9438 2.40889 19.36 2.22989 20.7386 1.88072C21.1386 1.78072 21.3966 2.00972 21.3986 2.47172C21.3986 3.54572 21.3986 4.61972 21.3986 5.69472C21.3986 9.12872 21.3986 12.5621 21.3986 15.9947C21.3986 16.5227 21.3146 16.6477 20.8296 16.7697C18.7705 17.2903 16.635 17.4393 14.5236 17.2097C13.0983 17.0519 11.7048 16.6811 10.3896 16.1097C8.85451 15.4823 7.18772 15.2455 5.53862 15.4207C4.05783 15.5527 2.60435 15.9011 1.2246 16.4547C1.14691 16.4761 1.07997 16.5256 1.03673 16.5936C0.993492 16.6616 0.97706 16.7433 0.990619 16.8227C0.996619 19.5167 0.996619 22.2104 0.990619 24.9037C0.993902 25.0172 0.985845 25.1308 0.966602 25.2427C0.948792 25.3519 0.893572 25.4516 0.810382 25.5245C0.727193 25.5975 0.621215 25.6393 0.510608 25.6427C0.396272 25.6415 0.285988 25.6002 0.198993 25.526C0.111998 25.4518 0.0538325 25.3494 0.0346255 25.2367C0.0234699 25.181 0.0167624 25.1245 0.0146059 25.0677C0.0146059 25.0107 0.0146059 24.9537 0.0146059 24.8967C0.0146059 17.6047 0.0119437 10.3131 0.00661033 3.02172C0.00661033 2.46072 0.0206103 1.89872 0.00661033 1.33772C-0.0128404 1.19863 0.0108774 1.05692 0.0745425 0.931736C0.138207 0.806552 0.238739 0.703925 0.362598 0.637718H0.635608C1.05361 0.837718 0.984603 1.24872 0.992603 1.63772C1.0836 1.61472 1.14861 1.59972 1.21361 1.58072C2.43497 1.20657 3.68576 0.936273 4.95262 0.772718C5.33562 0.725718 5.7186 0.681719 6.1006 0.636719L7.83861 0.640718ZM1.0046 15.4147C1.0756 15.3957 1.1126 15.3887 1.1476 15.3747C2.31893 14.9187 3.54062 14.6045 4.78661 14.4387C6.51363 14.1774 8.27754 14.3143 9.94362 14.8387C10.6596 15.0757 11.3506 15.3997 12.0696 15.6247C14.7298 16.404 17.5467 16.4791 20.2446 15.8427C20.4336 15.8037 20.4216 15.6927 20.4216 15.5517C20.4216 11.4591 20.4216 7.36638 20.4216 3.27372V3.09572C19.3516 3.21472 18.3146 3.36972 17.2726 3.43572C15.1949 3.61016 13.1047 3.30781 11.1616 2.55172C9.75423 1.94403 8.23217 1.6476 6.6996 1.68272C4.84478 1.76516 3.00927 2.09474 1.24163 2.66272C1.05363 2.72072 1.00161 2.80572 1.00161 3.00972C1.00761 7.05372 1.00761 11.0977 1.00161 15.1417L1.0046 15.4147Z" fill="white"/>
<path d="M14.6262 7.14543C14.5569 7.28174 14.4745 7.41101 14.3802 7.53143C13.9476 7.98876 13.5075 8.43909 13.0602 8.88243C13.0104 8.92722 12.9739 8.98494 12.9548 9.04918C12.9358 9.11343 12.9349 9.1817 12.9522 9.24643C13.0672 9.90343 13.1702 10.5614 13.2792 11.2194C13.3001 11.3132 13.2922 11.4111 13.2565 11.5003C13.2208 11.5896 13.159 11.6659 13.0792 11.7194C13.0024 11.7765 12.91 11.809 12.8143 11.8125C12.7187 11.8161 12.6241 11.7906 12.5432 11.7394C11.9982 11.4394 11.4512 11.1464 10.9142 10.8344C10.8503 10.7902 10.7742 10.7669 10.6964 10.7678C10.6187 10.7687 10.5431 10.7937 10.4802 10.8394C9.98022 11.1314 9.45923 11.4034 8.95123 11.6904C8.86164 11.7616 8.75176 11.8024 8.63745 11.8071C8.52314 11.8118 8.41031 11.78 8.31522 11.7164C8.22848 11.6481 8.16502 11.5546 8.13351 11.4488C8.102 11.343 8.10399 11.2301 8.13922 11.1254C8.25322 10.4914 8.35556 9.85576 8.44623 9.21843C8.45569 9.10466 8.41973 8.99177 8.34622 8.90443C7.91622 8.44443 7.47521 7.99543 7.03021 7.54943C6.9461 7.48373 6.88309 7.39482 6.84897 7.2937C6.81484 7.19257 6.81111 7.08366 6.83823 6.98043C6.87248 6.87891 6.93747 6.79058 7.0242 6.72769C7.11093 6.66479 7.2151 6.63045 7.32223 6.62943C7.89223 6.54843 8.46022 6.45143 9.03122 6.37843C9.12322 6.37477 9.21198 6.34341 9.28586 6.28845C9.35973 6.23349 9.41527 6.15749 9.44522 6.07042C9.68522 5.51442 9.95823 4.97043 10.2092 4.42143C10.2428 4.31983 10.3071 4.23119 10.3933 4.16777C10.4795 4.10434 10.5832 4.06928 10.6902 4.06742C10.8008 4.06602 10.909 4.1 10.999 4.1644C11.0889 4.2288 11.1559 4.32026 11.1902 4.42543C11.4569 5.01143 11.7312 5.59376 12.0132 6.17243C12.0373 6.21426 12.0697 6.25073 12.1084 6.27962C12.1471 6.30851 12.1913 6.3292 12.2382 6.34043C12.8722 6.45143 13.5102 6.54043 14.1462 6.64743C14.2717 6.66152 14.3883 6.71899 14.476 6.80991C14.5636 6.90083 14.6168 7.0195 14.6262 7.14543ZM13.1092 7.54543L13.0522 7.45642C12.7862 7.41442 12.5202 7.37542 12.2522 7.33142C11.3272 7.18042 11.4702 7.30242 11.0832 6.48542C10.9622 6.23042 10.8432 5.97443 10.7012 5.67343C10.5212 6.05343 10.3422 6.37342 10.2192 6.70942C10.1691 6.88065 10.0642 7.03071 9.92059 7.13656C9.77698 7.24242 9.60261 7.29823 9.42422 7.29543C9.06522 7.32043 8.70923 7.39542 8.35223 7.45642L8.30023 7.53643C8.60023 7.81443 8.89322 8.09843 9.20022 8.36743C9.31543 8.4602 9.40049 8.58509 9.44464 8.72627C9.48879 8.86744 9.49003 9.01854 9.44821 9.16043C9.36221 9.56043 9.31422 9.96843 9.24322 10.4134C9.59822 10.2184 9.92222 10.0674 10.2162 9.87143C10.354 9.76365 10.5238 9.7051 10.6987 9.7051C10.8736 9.7051 11.0435 9.76365 11.1812 9.87143C11.4812 10.0714 11.8102 10.2234 12.1592 10.4144C12.0862 9.96443 12.0322 9.55143 11.9492 9.14543C11.9104 9.01054 11.912 8.86722 11.9537 8.73321C11.9955 8.5992 12.0756 8.48038 12.1842 8.39143C12.5012 8.11443 12.8032 7.82643 13.1102 7.54543H13.1092Z" fill="white"/>
</svg>
