<svg width="25" height="25" viewBox="0 0 25 25" fill="none" xmlns="http://www.w3.org/2000/svg">
<g clip-path="url(#clip0_1626_250)">
<path d="M20.8198 15.0202C22.1002 13.5963 22.8719 11.7879 23.0139 9.8783C23.1559 7.96873 22.6602 6.06601 21.6045 4.46847C20.5488 2.87093 18.9928 1.6689 17.1805 1.05083C15.3681 0.432759 13.4019 0.433601 11.5901 1.05322C9.77822 1.67284 8.22323 2.8762 7.16889 4.47465C6.11455 6.07309 5.62048 7.97623 5.76412 9.88568C5.90776 11.7951 6.68099 13.6029 7.96259 15.0257C9.2442 16.4484 10.9617 17.4056 12.8458 17.7472C13.3616 17.8411 13.8847 17.8887 14.4089 17.8892C15.4793 17.8897 16.5404 17.6893 17.5368 17.2982L19.3368 21.3572C19.5086 21.7453 19.7642 22.0907 20.0853 22.3684C20.4064 22.646 20.7849 22.8492 21.1938 22.9632C21.2823 22.9885 21.3721 23.0089 21.4628 23.0242C21.9218 23.107 22.394 23.0767 22.8386 22.9357C23.2831 22.7947 23.6865 22.5474 24.0138 22.2152C24.2812 21.9457 24.4927 21.626 24.6359 21.2745C24.7792 20.9229 24.8516 20.5465 24.8488 20.1669C24.846 19.7873 24.7681 19.412 24.6197 19.0626C24.4713 18.7132 24.2552 18.3967 23.9838 18.1312L20.8198 15.0202ZM13.0728 16.5042C11.2635 16.1777 9.64179 15.1862 8.52654 13.7245C7.4113 12.2628 6.88322 10.4368 7.04618 8.60553C7.20914 6.77422 8.05134 5.07014 9.40716 3.82837C10.763 2.5866 12.5343 1.897 14.3728 1.89516C14.8192 1.89487 15.2646 1.9347 15.7039 2.01416C16.6597 2.18203 17.5729 2.5372 18.391 3.05924C19.2091 3.58128 19.9159 4.2599 20.4708 5.05606C21.0257 5.85222 21.4177 6.75022 21.6243 7.69843C21.831 8.64663 21.8481 9.62633 21.6748 10.5812C21.5015 11.536 21.1411 12.4472 20.6144 13.2623C20.0877 14.0774 19.4051 14.7803 18.6058 15.3307C17.8064 15.881 16.9062 16.2679 15.9568 16.4691C15.0075 16.6704 14.0277 16.6819 13.0738 16.5032L13.0728 16.5042ZM23.5888 20.3172C23.5685 20.5416 23.5016 20.7594 23.3924 20.9566C23.2831 21.1537 23.134 21.326 22.9544 21.4622C22.7748 21.5985 22.5688 21.6958 22.3496 21.748C22.1303 21.8001 21.9025 21.806 21.6808 21.7652L21.5288 21.7292C21.2992 21.6655 21.0865 21.5517 20.906 21.3961C20.7255 21.2405 20.5817 21.0469 20.4848 20.8292L18.6728 16.7452C18.8882 16.6218 19.0992 16.4885 19.3058 16.3452C19.5125 16.2018 19.7125 16.0495 19.9058 15.8882L23.1058 19.0232C23.2772 19.1896 23.4094 19.392 23.493 19.6158C23.5765 19.8396 23.6092 20.0792 23.5888 20.3172Z" fill="white"/>
<path d="M5.38196 24.4522C5.50059 24.5706 5.66134 24.6372 5.82896 24.6372H14.956C15.1894 24.6375 15.4206 24.5917 15.6364 24.5026C15.8521 24.4135 16.0482 24.2827 16.2134 24.1178C16.3786 23.9529 16.5097 23.757 16.5992 23.5414C16.6887 23.3258 16.7348 23.0946 16.735 22.8612V20.3792C16.735 20.2108 16.6681 20.0493 16.549 19.9302C16.4299 19.8111 16.2684 19.7442 16.1 19.7442C15.9315 19.7442 15.77 19.8111 15.6509 19.9302C15.5319 20.0493 15.465 20.2108 15.465 20.3792V22.8542C15.4647 22.9888 15.4111 23.1177 15.3158 23.2128C15.2206 23.3078 15.0915 23.3612 14.957 23.3612H6.75696V19.3772C6.7559 18.9842 6.59911 18.6077 6.32095 18.3301C6.04279 18.0525 5.66594 17.8965 5.27296 17.8962H1.27296V4.6832C1.27322 4.54865 1.32686 4.41969 1.4221 4.32464C1.51734 4.22959 1.6464 4.17621 1.78095 4.17621H4.51995C4.6881 4.17621 4.84936 4.10941 4.96826 3.99051C5.08716 3.87161 5.15395 3.71035 5.15395 3.54221C5.15395 3.37406 5.08716 3.2128 4.96826 3.0939C4.84936 2.975 4.6881 2.9082 4.51995 2.9082H1.77895C1.30801 2.9082 0.856327 3.09515 0.523132 3.42797C0.189938 3.76079 0.00248317 4.21226 0.00195312 4.6832V18.8242C0.00205091 18.9915 0.0686004 19.1519 0.186958 19.2702L5.38196 24.4522ZM5.49895 19.3792V22.7792L1.86295 19.1522H5.27496C5.33357 19.1522 5.38978 19.1755 5.43123 19.2169C5.47267 19.2584 5.49596 19.3146 5.49596 19.3732L5.49895 19.3792Z" fill="white"/>
<path d="M19.6368 9.39491V7.09491C19.6368 6.92703 19.5701 6.76602 19.4514 6.64731C19.3327 6.5286 19.1717 6.46191 19.0038 6.46191H16.7038C16.5354 6.46191 16.3739 6.5288 16.2548 6.64789C16.1357 6.76697 16.0688 6.9285 16.0688 7.09691C16.0688 7.26532 16.1357 7.42683 16.2548 7.54591C16.3739 7.665 16.5354 7.7319 16.7038 7.7319H17.4658L15.2198 9.9859L13.2328 7.9989C13.1741 7.94018 13.1044 7.89361 13.0277 7.86183C12.951 7.83005 12.8688 7.81369 12.7858 7.81369C12.7028 7.81369 12.6206 7.83005 12.5439 7.86183C12.4672 7.89361 12.3975 7.94018 12.3388 7.9989L9.34781 10.9869C9.28402 11.0444 9.2326 11.1143 9.19668 11.1923C9.16077 11.2703 9.1411 11.3548 9.13888 11.4407C9.13666 11.5265 9.15194 11.6119 9.18377 11.6917C9.21561 11.7715 9.26334 11.8439 9.32406 11.9046C9.38479 11.9654 9.45725 12.0131 9.53702 12.045C9.61678 12.0768 9.7022 12.0921 9.78805 12.0898C9.87391 12.0876 9.95839 12.0679 10.0364 12.032C10.1144 11.9961 10.1843 11.9447 10.2418 11.8809L12.7828 9.3399L14.7698 11.3269C14.8885 11.4452 15.0492 11.5117 15.2168 11.5117C15.3844 11.5117 15.5452 11.4452 15.6638 11.3269L18.3728 8.62091V9.3829C18.3728 9.55132 18.4397 9.71284 18.5588 9.83192C18.6779 9.95101 18.8394 10.0179 19.0078 10.0179C19.1762 10.0179 19.3377 9.95101 19.4568 9.83192C19.5759 9.71284 19.6428 9.55132 19.6428 9.3829L19.6368 9.39491Z" fill="white"/>
</g>
<defs>
<clipPath id="clip0_1626_250">
<rect width="24.845" height="24" fill="white" transform="translate(0 0.636719)"/>
</clipPath>
</defs>
</svg>
