<svg width="28" height="30" viewBox="0 0 28 30" fill="none" xmlns="http://www.w3.org/2000/svg">
<path d="M19.7509 25.2018C19.7509 25.8778 19.7509 26.4758 19.7509 27.0728C19.7875 27.4419 19.7467 27.8145 19.6309 28.1668C19.5152 28.5191 19.3271 28.8433 19.0787 29.1187C18.8303 29.3941 18.5272 29.6145 18.1887 29.7659C17.8501 29.9173 17.4837 29.9963 17.1129 29.9978C12.6189 29.9978 8.12454 29.9978 3.62987 29.9978C3.03864 30.0066 2.46257 29.8107 1.99929 29.4432C1.536 29.0758 1.214 28.5595 1.08787 27.9818C1.03311 27.7454 1.00526 27.5035 1.00487 27.2608C1.00021 20.5808 1.00021 13.9005 1.00487 7.21983C0.97571 6.86245 1.01938 6.50286 1.13323 6.16285C1.24709 5.82284 1.42876 5.50947 1.66726 5.24172C1.90575 4.97396 2.1961 4.75739 2.52073 4.60512C2.84536 4.45285 3.19752 4.36804 3.55588 4.35583C4.03888 4.34883 4.52288 4.35583 5.04988 4.35583C5.04988 4.08283 5.04988 3.82383 5.04988 3.56583C5.0325 3.33896 5.06084 3.11092 5.13322 2.8952C5.2056 2.67949 5.32054 2.48051 5.47124 2.31004C5.62194 2.13957 5.80533 2.00108 6.01053 1.90279C6.21574 1.8045 6.43859 1.7484 6.66588 1.73782C7.14988 1.72782 7.63487 1.74383 8.11787 1.72783C8.16784 1.72053 8.21539 1.70163 8.25673 1.67262C8.29806 1.64362 8.33202 1.60533 8.35588 1.56083C8.49249 1.1205 8.76815 0.736313 9.14153 0.465875C9.51492 0.195436 9.96591 0.0533179 10.4269 0.0608301C10.8848 0.0819678 11.3241 0.248464 11.6811 0.536164C12.038 0.823865 12.294 1.2178 12.4119 1.66083C12.4299 1.70683 12.4519 1.74983 12.4779 1.80583C13.0169 1.80583 13.5549 1.80583 14.0939 1.80583C14.322 1.80281 14.5481 1.84823 14.7573 1.93908C14.9665 2.02993 15.1541 2.16416 15.3076 2.33287C15.4611 2.50159 15.577 2.70096 15.6477 2.91781C15.7185 3.13466 15.7424 3.36405 15.7179 3.59083C15.7179 3.83383 15.7179 4.07582 15.7179 4.36182C16.1839 4.36182 16.6289 4.34283 17.0719 4.36883C17.4093 4.37413 17.7444 4.42732 18.0669 4.52683C18.5742 4.72854 19.0074 5.08096 19.3082 5.53658C19.6089 5.99219 19.7628 6.52908 19.7489 7.07483C19.7629 8.07483 19.7569 9.08483 19.7489 10.0898C19.7386 10.165 19.7524 10.2415 19.7884 10.3084C19.8243 10.3752 19.8805 10.4289 19.9489 10.4618C21.5873 11.4739 22.824 13.023 23.448 14.8449C24.072 16.6668 24.0448 18.6488 23.3709 20.4528C23.3337 20.5258 23.3216 20.609 23.3366 20.6895C23.3517 20.7699 23.3929 20.8432 23.4539 20.8978C24.6539 22.2188 25.8439 23.5538 27.0439 24.8758C27.4422 25.2829 27.7145 25.7963 27.828 26.3544C27.9415 26.9125 27.8915 27.4915 27.6839 28.0218C27.543 28.5581 27.2363 29.0362 26.8077 29.388C26.3791 29.7398 25.8503 29.9472 25.2969 29.9808C24.9036 30.0036 24.5106 29.932 24.1507 29.772C23.7908 29.6119 23.4743 29.3681 23.2279 29.0608C22.1519 27.8608 21.0732 26.6608 19.9919 25.4608C19.9339 25.3878 19.8669 25.3198 19.7509 25.2018ZM4.99187 5.60183C4.51787 5.60183 4.07987 5.62183 3.64487 5.60183C3.42079 5.59512 3.19793 5.63718 2.99172 5.72511C2.78551 5.81305 2.60087 5.94476 2.45059 6.11111C2.30031 6.27746 2.18798 6.47449 2.12138 6.68855C2.05478 6.90261 2.03551 7.12858 2.06488 7.35083C2.08888 13.8998 2.07688 20.4508 2.07688 26.9988C2.07688 27.0798 2.07688 27.1608 2.07688 27.2428C2.07271 27.4714 2.12176 27.6978 2.22017 27.9042C2.31857 28.1105 2.46363 28.2912 2.64387 28.4318C2.93798 28.6611 3.30563 28.7752 3.67788 28.7528C8.14454 28.7488 12.6112 28.7488 17.0779 28.7528C17.1599 28.7528 17.2419 28.7528 17.3239 28.7528C17.6976 28.7172 18.043 28.5379 18.2872 28.2527C18.5314 27.9675 18.6553 27.5986 18.6329 27.2238C18.6329 26.7068 18.6329 26.1878 18.6329 25.6708C18.6329 25.5868 18.6209 25.5018 18.6139 25.4048C18.4829 25.4358 18.3759 25.4598 18.2699 25.4868C16.7318 25.8757 15.1046 25.6886 13.6949 24.9608C13.5487 24.8881 13.3881 24.8488 13.2249 24.8458C10.6759 24.8388 8.12488 24.8458 5.57688 24.8398C5.45821 24.8449 5.33933 24.8385 5.22188 24.8208C5.08136 24.7944 4.95615 24.7156 4.87165 24.6003C4.78715 24.4849 4.74969 24.3418 4.76687 24.1998C4.76687 23.7908 4.99888 23.5808 5.45688 23.5798C7.43954 23.5798 9.42221 23.5798 11.4049 23.5798H11.6839C11.3209 23.0718 10.9599 22.5938 10.6309 22.0898C10.5945 22.0117 10.536 21.946 10.4625 21.901C10.3891 21.856 10.304 21.8337 10.2179 21.8368C8.65588 21.8468 7.09287 21.8428 5.53087 21.8368C5.42139 21.8397 5.31188 21.832 5.20388 21.8138C5.07891 21.7891 4.96665 21.7211 4.88689 21.6218C4.80714 21.5225 4.76499 21.3982 4.76787 21.2708C4.75041 21.1799 4.75491 21.086 4.781 20.9972C4.8071 20.9083 4.85403 20.8269 4.91789 20.7598C4.98176 20.6927 5.06071 20.6419 5.14819 20.6114C5.23568 20.581 5.32916 20.5719 5.42087 20.5848C6.82087 20.5848 8.21887 20.5848 9.61487 20.5848H9.90588C9.76587 19.9668 9.63488 19.3848 9.49688 18.7788H9.18988C7.93888 18.7788 6.68987 18.7788 5.43487 18.7788C5.04787 18.7788 4.84388 18.6278 4.77888 18.3218C4.74838 18.2293 4.74089 18.1307 4.75705 18.0346C4.7732 17.9385 4.81252 17.8478 4.8716 17.7703C4.93067 17.6928 5.00774 17.6309 5.09612 17.5898C5.18451 17.5488 5.28155 17.5299 5.37887 17.5348C6.65787 17.5348 7.93688 17.5348 9.21688 17.5348H9.49087C9.54887 16.9118 9.60388 16.3258 9.65988 15.7198H9.35988C8.03521 15.7198 6.71054 15.7198 5.38588 15.7198C5.3094 15.7297 5.23169 15.7233 5.15786 15.701C5.08403 15.6788 5.01574 15.6411 4.95747 15.5906C4.89921 15.5401 4.85229 15.4778 4.81978 15.4079C4.78728 15.338 4.76993 15.2619 4.76887 15.1848C4.74791 15.0969 4.74815 15.0053 4.76957 14.9175C4.79099 14.8297 4.83298 14.7482 4.89207 14.6799C4.95117 14.6115 5.02568 14.5581 5.10945 14.5242C5.19322 14.4903 5.28386 14.4768 5.37388 14.4848C6.80788 14.4848 8.24288 14.4778 9.67388 14.4848C9.76935 14.4956 9.86556 14.4722 9.94539 14.4187C10.0252 14.3653 10.0835 14.2852 10.1099 14.1928C10.3169 13.7318 10.5729 13.2928 10.8099 12.8518C10.8389 12.7978 10.8599 12.7398 10.8959 12.6628H8.50988C7.44088 12.6628 6.37188 12.6628 5.30288 12.6628C5.22292 12.6692 5.14253 12.658 5.06737 12.6299C4.99222 12.6019 4.92413 12.5577 4.86789 12.5005C4.81165 12.4433 4.76862 12.3745 4.74184 12.2989C4.71506 12.2232 4.70517 12.1427 4.71287 12.0628C4.70095 11.9811 4.70728 11.8978 4.73141 11.8188C4.75554 11.7398 4.79687 11.6672 4.85242 11.6061C4.90798 11.545 4.97638 11.4969 5.05271 11.4654C5.12904 11.4339 5.2114 11.4197 5.29388 11.4238C5.38488 11.4238 5.47688 11.4238 5.56788 11.4238C7.62388 11.4238 9.67988 11.4238 11.7349 11.4158C11.906 11.4097 12.0706 11.3483 12.2039 11.2408C13.4762 10.1178 15.1286 9.52168 16.8249 9.57383C17.4249 9.59983 18.0169 9.71383 18.6249 9.78783C18.6249 8.86683 18.6579 7.90183 18.6129 6.94383C18.6099 6.67137 18.5215 6.40672 18.36 6.18726C18.1985 5.96781 17.9721 5.80465 17.7129 5.72083C17.0541 5.59482 16.3815 5.55782 15.7129 5.61083V6.27183C15.7129 7.47183 15.0849 8.17183 14.0129 8.17183C12.5602 8.17183 11.1075 8.17183 9.65488 8.17183C8.61288 8.17183 7.57188 8.18183 6.52988 8.17183C6.31429 8.16626 6.10209 8.11683 5.90623 8.02656C5.71036 7.93629 5.53495 7.80708 5.39066 7.64679C5.24638 7.4865 5.13625 7.2985 5.067 7.09426C4.99775 6.89002 4.97083 6.67381 4.98788 6.45883C4.98888 6.17083 4.99087 5.90683 4.99087 5.59783L4.99187 5.60183ZM10.5779 17.5358C10.5829 21.2188 13.2669 24.2618 16.4919 24.2768C20.2509 24.2948 22.7509 21.0708 22.7579 17.4718C22.7649 13.4628 19.5789 10.6408 16.6729 10.6788C13.2929 10.7198 10.5779 13.7468 10.5779 17.5358ZM10.4069 6.91283H14.0219C14.5219 6.91283 14.6449 6.77483 14.6449 6.23983C14.6449 5.38783 14.6449 4.5355 14.6449 3.68283C14.6449 3.19983 14.5099 3.04283 14.0779 3.03983C13.4659 3.03983 12.8549 3.03983 12.2429 3.03983C11.6309 3.03983 11.5549 2.98083 11.4429 2.29683C11.4036 2.02495 11.2629 1.778 11.049 1.60565C10.8351 1.4333 10.5639 1.34833 10.2899 1.36783C10.0372 1.38892 9.80218 1.50576 9.63283 1.69444C9.46349 1.88311 9.37264 2.12937 9.37887 2.38283C9.34287 2.84783 9.17388 3.03183 8.74788 3.03583C8.07288 3.04183 7.39688 3.03583 6.72188 3.03583C6.32188 3.03583 6.17688 3.20383 6.17488 3.64383C6.17488 4.5165 6.17488 5.38883 6.17488 6.26083C6.17488 6.75283 6.31788 6.90683 6.77488 6.90783C7.98154 6.9125 9.19221 6.91416 10.4069 6.91283ZM22.7199 21.9008C22.1903 22.8506 21.4559 23.6704 20.5699 24.3008C20.5753 24.3243 20.5841 24.3468 20.5959 24.3678C21.8139 25.6988 23.0169 27.0478 24.2559 28.3548C24.3957 28.4979 24.5649 28.609 24.7518 28.6803C24.9386 28.7517 25.1388 28.7818 25.3384 28.7684C25.538 28.755 25.7323 28.6984 25.908 28.6027C26.0836 28.507 26.2364 28.3743 26.3559 28.2138C26.6317 27.8937 26.7826 27.4846 26.7808 27.062C26.779 26.6393 26.6245 26.2316 26.3459 25.9138C25.1789 24.5968 23.9969 23.2968 22.8209 21.9908C22.7888 21.9587 22.7547 21.9287 22.7189 21.9008H22.7199Z" fill="#E6335B"/>
<path d="M15.4459 19.4635L17.0459 17.8635C17.9045 17.0048 18.7635 16.1458 19.6229 15.2865C19.6912 15.2134 19.7658 15.1465 19.8459 15.0865C19.9492 15.0196 20.072 14.9892 20.1946 15.0003C20.3172 15.0113 20.4325 15.063 20.5223 15.1473C20.612 15.2315 20.671 15.3433 20.6898 15.465C20.7086 15.5866 20.6861 15.7111 20.6259 15.8185C20.5644 15.9088 20.4929 15.992 20.4129 16.0665C18.9462 17.5331 17.4795 18.9998 16.0129 20.4664C15.5999 20.8794 15.3699 20.8784 14.9539 20.4664C14.2539 19.7664 13.5539 19.0795 12.8689 18.3665C12.7288 18.22 12.6523 18.0241 12.6559 17.8215C12.6847 17.7296 12.7316 17.6444 12.7937 17.5709C12.8559 17.4974 12.9321 17.4371 13.0179 17.3934C13.1198 17.3486 13.2339 17.3399 13.3414 17.3688C13.4489 17.3977 13.5433 17.4625 13.6089 17.5525C14.1569 18.1025 14.7089 18.6524 15.2539 19.2014C15.3244 19.2838 15.3886 19.3714 15.4459 19.4635Z" fill="#E6335B"/>
</svg>
