<svg width="25" height="24" viewBox="0 0 25 24" fill="none" xmlns="http://www.w3.org/2000/svg">
<path d="M0.000626069 10.9252C0.0162778 10.8832 0.0375641 10.8419 0.0469552 10.7987C0.281105 9.76444 1.13381 9.06637 2.19249 9.04571C2.70587 9.03569 2.70211 9.03382 2.89494 8.55174C3.00451 8.2769 3.11532 8.0008 3.24992 7.73785C3.32693 7.5876 3.32004 7.49556 3.19233 7.38162C2.78851 7.02038 2.48049 6.59653 2.38157 6.04684C2.2526 5.33375 2.40911 4.69077 2.89745 4.15423C3.28123 3.73352 3.6863 3.33033 4.10326 2.94216C4.98038 2.12765 6.27947 2.11888 7.12529 2.96282C7.4352 3.2721 7.66371 3.35537 8.04061 3.11621C8.28603 2.96032 8.58278 2.88081 8.86326 2.7869C8.99661 2.74245 9.04545 2.68485 9.04545 2.54148C9.04482 2.28479 9.04357 2.02309 9.09115 1.77267C9.28085 0.772834 10.158 0.0265596 11.1741 0.0109079C11.829 0.000890789 12.4907 -0.0216477 13.1374 0.0559849C14.1492 0.177442 14.9524 1.09276 14.9399 2.10761C14.9343 2.57654 15.0394 2.84637 15.5221 2.92776C15.6868 2.95531 15.8408 3.05173 15.9973 3.12122C16.1532 3.19071 16.306 3.26647 16.5213 3.36852C16.6516 3.21701 16.773 3.03983 16.9289 2.90022C17.7678 2.14956 19.02 2.14706 19.8539 2.90397C20.264 3.27648 20.654 3.67279 21.0347 4.07472C21.8868 4.97501 21.8736 6.27786 21.0153 7.17752C20.6709 7.53814 20.6753 7.53626 20.8675 7.98139C20.994 8.27439 21.1161 8.57053 21.22 8.87229C21.2669 9.00815 21.3314 9.05385 21.4704 9.04634C21.9775 9.01879 22.4696 9.07388 22.9129 9.34998C23.6009 9.77821 23.9759 10.3993 23.9935 11.2075C24.0072 11.8461 24.031 12.4935 23.9503 13.1239C23.8157 14.1789 22.906 14.9308 21.8417 14.9596C21.657 14.9646 21.4303 14.917 21.3001 15.0059C21.1787 15.0892 21.163 15.3233 21.0935 15.488C20.9815 15.754 20.8769 16.0239 20.7442 16.2787C20.669 16.4233 20.6803 16.5085 20.8011 16.6161C21.2112 16.983 21.5236 17.4125 21.6213 17.971C21.7446 18.6759 21.5894 19.312 21.1092 19.8429C20.7329 20.2592 20.3316 20.6562 19.9228 21.0412C19.0269 21.8851 17.7303 21.8726 16.8369 21.0262C16.4656 20.6743 16.4675 20.6793 15.9942 20.8847C15.7081 21.0086 15.4176 21.1226 15.1233 21.2253C15 21.2685 14.9587 21.3242 14.9543 21.4563C14.9443 21.7593 14.9543 22.073 14.876 22.361C14.6463 23.2086 14.0753 23.7295 13.227 23.9493C13.1763 23.9624 13.1274 23.9831 13.078 24C12.3592 24 11.6405 24 10.9218 24C10.8498 23.9762 10.7784 23.948 10.7052 23.9286C10.1098 23.7721 9.65712 23.4265 9.3397 22.9019C9.07425 22.463 9.0154 21.9803 9.04294 21.4813C9.05108 21.3342 9.00726 21.2635 8.85825 21.2152C8.56963 21.122 8.29041 20.9999 8.0093 20.8847C7.85153 20.8202 7.68187 20.6693 7.54601 20.6969C7.39701 20.7275 7.27931 20.9179 7.14971 21.0393C6.26758 21.8651 4.98414 21.8814 4.10013 21.0594C3.68317 20.6718 3.2781 20.2686 2.89494 19.8479C2.40786 19.3114 2.25009 18.6684 2.38157 17.9559C2.47172 17.4695 2.72465 17.0763 3.074 16.7351C3.34258 16.4728 3.3357 16.4715 3.18481 16.141C3.07776 15.9074 2.97821 15.6701 2.88367 15.431C2.70149 14.969 2.70399 14.9677 2.21441 14.9596C1.12818 14.9414 0.281105 14.2477 0.0431988 13.1828C0.0350599 13.1471 0.0143996 13.1139 0 13.0795C0.000626069 12.3626 0.000626069 11.6439 0.000626069 10.9252ZM12.0068 1.4108C11.7645 1.4108 11.5222 1.40829 11.2805 1.41142C10.7865 1.41769 10.4572 1.74262 10.4497 2.23283C10.4447 2.56089 10.4535 2.88895 10.4466 3.21701C10.4385 3.58952 10.2525 3.83995 9.89314 3.93761C9.15876 4.13733 8.46383 4.42657 7.80207 4.80222C7.44772 5.00381 7.16474 4.95873 6.86798 4.66949C6.64447 4.45162 6.42785 4.22561 6.20309 4.00836C5.83496 3.65338 5.37981 3.65275 5.01669 4.00836C4.67611 4.34205 4.33929 4.67888 4.00559 5.01884C3.64873 5.38321 3.64873 5.83836 4.00371 6.20524C4.22096 6.43 4.44697 6.64536 4.66484 6.8695C4.96035 7.17377 4.99979 7.45237 4.78755 7.82362C4.4188 8.47098 4.13644 9.15277 3.9386 9.87087C3.82904 10.2684 3.58612 10.445 3.16728 10.4494C2.84674 10.4525 2.52681 10.4456 2.20627 10.4519C1.74485 10.4613 1.41366 10.7931 1.40803 11.257C1.40177 11.7491 1.40239 12.2412 1.4074 12.7333C1.41241 13.2203 1.74611 13.5471 2.23945 13.554C2.55937 13.5584 2.87992 13.5509 3.20047 13.5565C3.588 13.5628 3.83342 13.7456 3.9361 14.1206C4.13456 14.8469 4.42067 15.5355 4.79256 16.1904C5.00167 16.5585 4.95847 16.8359 4.65921 17.1427C4.44071 17.3662 4.2147 17.5822 3.99808 17.8069C3.65311 18.165 3.65124 18.6214 3.99683 18.9764C4.3349 19.3233 4.67736 19.6657 5.02421 20.0038C5.37856 20.3494 5.83496 20.3494 6.19433 20.0063C6.4147 19.7959 6.62569 19.5762 6.84231 19.3621C7.16724 19.0409 7.44146 18.9971 7.83213 19.2193C8.47259 19.5843 9.14812 19.8611 9.85808 20.0595C10.2707 20.1747 10.4447 20.4114 10.4485 20.8452C10.451 21.1576 10.4447 21.4701 10.4503 21.7825C10.4591 22.257 10.7909 22.5876 11.268 22.5932C11.7526 22.5989 12.2365 22.5976 12.7211 22.5938C13.2144 22.5895 13.545 22.262 13.5531 21.7731C13.5582 21.4531 13.5513 21.1326 13.5556 20.8127C13.5613 20.4126 13.7435 20.171 14.1316 20.0633C14.8497 19.8648 15.5322 19.5843 16.1795 19.215C16.5595 18.9983 16.8337 19.0409 17.1505 19.3514C17.3734 19.5699 17.5888 19.7966 17.8154 20.0126C18.1654 20.3456 18.6224 20.3475 18.968 20.0132C19.3217 19.6707 19.6698 19.3226 20.0123 18.9695C20.3479 18.6233 20.3472 18.1688 20.0142 17.8169C19.7938 17.5847 19.5609 17.3643 19.3374 17.1352C19.0413 16.8309 19.0018 16.5542 19.2147 16.1816C19.5797 15.5412 19.8589 14.8663 20.0574 14.1569C20.177 13.7293 20.4086 13.559 20.8587 13.5559C21.1636 13.554 21.4679 13.559 21.7728 13.554C22.2624 13.5459 22.5905 13.216 22.5948 12.7232C22.5992 12.2468 22.5986 11.7704 22.5948 11.2939C22.5911 10.7862 22.2649 10.4575 21.7615 10.4512C21.4416 10.4469 21.1211 10.4544 20.8005 10.4487C20.4149 10.4418 20.1682 10.2565 20.0661 9.88339C19.8677 9.15715 19.5809 8.4691 19.2097 7.81423C19.0012 7.44611 19.0444 7.16938 19.3455 6.86261C19.564 6.63973 19.7907 6.42373 20.006 6.19772C20.3504 5.83648 20.3504 5.38196 20.0048 5.0276C19.6667 4.68076 19.3243 4.3383 18.9774 4.00022C18.6224 3.65463 18.166 3.65526 17.8079 3.99959C17.5882 4.21058 17.3772 4.43096 17.1606 4.64445C16.835 4.96499 16.5602 5.00819 16.1701 4.78531C15.5303 4.41843 14.8541 4.14234 14.1442 3.94513C13.7403 3.83306 13.5607 3.59578 13.5556 3.18195C13.5519 2.86203 13.5594 2.54148 13.5531 2.22156C13.5444 1.747 13.2119 1.41956 12.7349 1.41142C12.4913 1.40767 12.249 1.41142 12.0068 1.4108Z" fill="white"/>
<path d="M11.9991 17.2202C9.11733 17.2196 6.78648 14.89 6.78272 12.0076C6.77896 9.11828 9.12672 6.7749 12.0129 6.78617C14.8997 6.79744 17.2224 9.12892 17.2174 12.0095C17.2124 14.8919 14.8803 17.2209 11.9991 17.2202ZM15.8113 11.9969C15.8075 9.88709 14.1027 8.18794 11.9941 8.1917C9.88427 8.19545 8.18511 9.89962 8.18887 12.0082C8.192 14.1162 9.89866 15.8178 12.006 15.8135C14.1152 15.8097 15.8156 14.1043 15.8113 11.9969Z" fill="white"/>
</svg>
