<svg width="10" height="13" viewBox="0 0 10 13" fill="none" xmlns="http://www.w3.org/2000/svg">
<path d="M5.24205 12.0572C5.08077 12.0607 4.92322 12.0085 4.79605 11.9092L1.16505 8.85322C1.10718 8.80887 1.06031 8.7518 1.02805 8.68642C0.995784 8.62104 0.979004 8.54912 0.979004 8.47622C0.979004 8.40332 0.995784 8.33139 1.02805 8.26601C1.06031 8.20064 1.10718 8.14357 1.16505 8.09922C1.29305 7.99766 1.45165 7.94238 1.61505 7.94238C1.77845 7.94238 1.93704 7.99766 2.06504 8.09922L5.24805 10.7812L8.43105 8.09922C8.55863 8.00664 8.71297 7.95829 8.87057 7.96154C9.02817 7.96479 9.18039 8.01946 9.30405 8.11722C9.35988 8.15989 9.40547 8.21449 9.43751 8.27703C9.46955 8.33957 9.48722 8.40847 9.48923 8.47871C9.49125 8.54895 9.47755 8.61876 9.44915 8.68303C9.42074 8.7473 9.37834 8.80442 9.32505 8.85022L5.68805 11.9092C5.56087 12.0085 5.40333 12.0607 5.24205 12.0572Z" fill="#321E41"/>
<path d="M5.24205 0.941574C5.08077 0.938042 4.92322 0.990322 4.79605 1.08957L1.16505 4.14557C1.10718 4.18992 1.06031 4.24699 1.02805 4.31237C0.995784 4.37775 0.979004 4.44967 0.979004 4.52257C0.979004 4.59547 0.995784 4.6674 1.02805 4.73278C1.06031 4.79815 1.10718 4.85523 1.16505 4.89957C1.29305 5.00114 1.45165 5.05641 1.61505 5.05641C1.77845 5.05641 1.93704 5.00114 2.06504 4.89957L5.24705 2.21757L8.42905 4.89957C8.55558 4.99281 8.70906 5.04227 8.86622 5.04046C9.02339 5.03866 9.17568 4.98569 9.30005 4.88957C9.35588 4.8469 9.40147 4.7923 9.43351 4.72976C9.46555 4.66722 9.48322 4.59832 9.48523 4.52808C9.48725 4.45784 9.47355 4.38803 9.44514 4.32376C9.41674 4.25949 9.37434 4.20237 9.32104 4.15657L5.68805 1.08957C5.56087 0.990322 5.40333 0.938042 5.24205 0.941574Z" fill="#321E41"/>
</svg>
