<svg width="42" height="42" viewBox="0 0 42 42" fill="none" xmlns="http://www.w3.org/2000/svg">
<path d="M20.954 1.29622e-06C15.3981 0.0063548 10.0716 2.21645 6.14324 6.14536C2.21489 10.0743 0.00555811 15.4011 0 20.957C0 21.4686 0.203237 21.9593 0.564995 22.321C0.926752 22.6828 1.4174 22.886 1.929 22.886C2.4406 22.886 2.93125 22.6828 3.29301 22.321C3.65476 21.9593 3.858 21.4686 3.858 20.957C3.85639 16.9532 5.25974 13.0758 7.82347 10.0005C10.3872 6.92521 13.9488 4.847 17.8875 4.12807C21.8262 3.40914 25.8923 4.09507 29.3772 6.06632C32.862 8.03757 35.5447 11.1692 36.9577 14.9153C38.3707 18.6615 38.4244 22.7847 37.1094 26.5663C35.7944 30.348 33.1942 33.5484 29.7618 35.6097C26.3294 37.671 22.2826 38.4626 18.3265 37.8464C14.3704 37.2303 10.7559 35.2455 8.113 32.238L8.927 31.63C9.16078 31.4553 9.34446 31.2221 9.45959 30.9539C9.57473 30.6858 9.61725 30.392 9.58289 30.1022C9.54854 29.8123 9.43852 29.5367 9.26389 29.3028C9.08925 29.069 8.85614 28.8852 8.588 28.77L2.888 26.324C2.56618 26.1895 2.21053 26.1582 1.87019 26.2346C1.52984 26.3109 1.22158 26.491 0.987999 26.75C0.8332 26.9261 0.71751 27.133 0.64856 27.3571C0.579609 27.5812 0.558965 27.8173 0.587997 28.05L1.322 34.212C1.37123 34.6148 1.56586 34.9858 1.86933 35.2552C2.1728 35.5246 2.56421 35.6739 2.97 35.675C3.32842 35.675 3.67705 35.5581 3.963 35.342L5.02 34.552C7.30209 37.227 10.2207 39.2847 13.5069 40.5355C16.793 41.7863 20.3412 42.19 23.8243 41.7093C27.3075 41.2287 30.6137 39.8793 33.4384 37.7853C36.2631 35.6913 38.5154 32.9202 39.9878 29.7271C41.4602 26.5341 42.1054 23.0218 41.8639 19.514C41.6224 16.0061 40.502 12.6154 38.6059 9.65424C36.7099 6.69309 34.0991 4.25671 31.0141 2.56957C27.9291 0.882422 24.4692 -0.00123536 20.953 1.29622e-06H20.954Z" fill="#FF3465"/>
<path d="M32.447 15.2059C32.4132 15.0999 32.3693 14.9975 32.316 14.8999C32.1773 14.6301 31.9669 14.4039 31.7079 14.2462C31.4488 14.0884 31.1513 14.0053 30.848 14.0059C30.5776 14.0081 30.3113 14.0728 30.07 14.1949L21.565 18.3669C21.1581 18.2602 20.7313 18.2551 20.322 18.3519L14.55 16.1779C14.1522 16.0023 13.7009 15.9919 13.2954 16.1491C12.89 16.3063 12.5636 16.618 12.388 17.0159C12.2124 17.4137 12.2021 17.865 12.3592 18.2704C12.5164 18.6759 12.8282 19.0023 13.226 19.1779L18.467 21.7659C18.6514 22.2677 18.985 22.701 19.423 23.0076C19.861 23.3142 20.3824 23.4794 20.917 23.4809C21.1652 23.4838 21.4126 23.4501 21.651 23.3809C22.0223 23.2698 22.3643 23.0776 22.6523 22.8182C22.9402 22.5588 23.1669 22.2386 23.316 21.8809L31.625 17.1559C31.9646 16.9765 32.2319 16.6854 32.3817 16.3318C32.5315 15.9781 32.5545 15.5836 32.447 15.2149V15.2059ZM21.347 22.3869C21.2133 22.425 21.075 22.4445 20.936 22.4449C20.587 22.4443 20.2499 22.3182 19.9862 22.0895C19.7226 21.8609 19.55 21.545 19.5001 21.1995C19.4503 20.8541 19.5264 20.5023 19.7146 20.2084C19.9027 19.9145 20.1904 19.6981 20.525 19.5989C20.8947 19.4983 21.2889 19.5444 21.6255 19.7276C21.962 19.9107 22.2147 20.2168 22.331 20.5819C22.4376 20.9515 22.3942 21.3484 22.2102 21.6863C22.0262 22.0241 21.7164 22.2759 21.348 22.3869H21.347Z" fill="#FF3465"/>
</svg>
