<svg width="36" height="47" viewBox="0 0 36 47" fill="none" xmlns="http://www.w3.org/2000/svg">
<path d="M17.692 18.6924C15.6427 18.6948 13.656 17.9864 12.0705 16.688C10.485 15.3895 9.39894 13.5814 8.99738 11.5718C8.59582 9.56223 8.90362 7.47556 9.86834 5.66751C10.8331 3.85947 12.395 2.44195 14.2878 1.65659C16.1807 0.87123 18.2873 0.766657 20.2486 1.36066C22.21 1.95466 23.9046 3.21047 25.0437 4.91407C26.1828 6.61766 26.6957 8.66356 26.4952 10.703C26.2947 12.7425 25.393 14.6493 23.944 16.0985C22.286 17.7574 20.0374 18.6904 17.692 18.6924ZM17.692 4.53846C16.4642 4.53863 15.2744 4.96453 14.3255 5.74356C13.3765 6.5226 12.727 7.60659 12.4876 8.81082C12.2482 10.0151 12.4338 11.265 13.0127 12.3478C13.5916 13.4305 14.5281 14.279 15.6625 14.7488C16.7968 15.2185 18.059 15.2803 19.2339 14.9238C20.4088 14.5672 21.4237 13.8143 22.1057 12.7934C22.7877 11.7724 23.0946 10.5466 22.9741 9.32471C22.8537 8.10284 22.3133 6.96056 21.445 6.09247C20.4494 5.09745 19.0995 4.53847 17.692 4.53846Z" fill="#FF3465"/>
<path d="M33.615 47H1.769C1.53669 47 1.30666 46.9542 1.09203 46.8653C0.877408 46.7764 0.682394 46.6461 0.518127 46.4818C0.353861 46.3176 0.223559 46.1226 0.134659 45.908C0.0457582 45.6933 0 45.4633 0 45.231V39.923C0 35.2306 1.86403 30.7305 5.18201 27.4125C8.5 24.0945 13.0002 22.2305 17.6925 22.2305C22.3848 22.2305 26.885 24.0945 30.203 27.4125C33.521 30.7305 35.385 35.2306 35.385 39.923V45.231C35.385 45.7002 35.1986 46.1501 34.8669 46.4818C34.5351 46.8136 34.0852 47 33.616 47H33.615ZM3.538 43.461H31.85V39.923C31.85 36.1691 30.3588 32.569 27.7044 29.9146C25.05 27.2602 21.4499 25.769 17.696 25.769C13.9421 25.769 10.342 27.2602 7.68761 29.9146C5.03322 32.569 3.542 36.1691 3.542 39.923L3.538 43.461Z" fill="#FF3465"/>
</svg>
